<?xml version="1.0" encoding="utf-8"?>
<!-- Generator: Adobe Illustrator 24.1.1, SVG Export Plug-In . SVG Version: 6.00 Build 0)  -->
<svg version="1.1" id="_x31_0" xmlns="http://www.w3.org/2000/svg" xmlns:xlink="http://www.w3.org/1999/xlink" x="0px" y="0px"
	 viewBox="0 0 512 512" style="enable-background:new 0 0 512 512;" xml:space="preserve">
<style type="text/css">
	.st0{fill:#374149;}
</style>
<g>
	<path class="st0" d="M511.918,254.722c0-6.082-0.238-12.16-0.722-18.16c-0.078-0.961-0.078-1.922-0.156-2.879
		c-0.562-6-1.359-12-2.321-17.922c-0.16-1.121-0.32-2.238-0.48-3.359c-1.043-5.84-2.238-11.519-3.602-17.199
		c-0.317-1.121-0.558-2.32-0.879-3.52c-1.438-5.601-3.121-11.042-4.878-16.48c-0.402-1.203-0.801-2.32-1.199-3.52
		c-1.282-3.519-2.563-7.042-4-10.562c-0.723-1.758-1.442-3.519-2.164-5.277c-0.477-1.122-0.958-2.242-1.516-3.36
		c-1.066-2.468-2.332-4.859-3.496-7.293c-0.047-0.098-0.098-0.203-0.145-0.301c-1.242-2.59-2.386-5.218-3.722-7.77
		c-0.558-0.957-1.121-2-1.598-2.957c-0.961-1.68-1.844-3.363-2.719-4.961c-1.922-3.359-3.922-6.641-6-9.922
		c-0.562-0.798-1.042-1.598-1.602-2.398c-1.281-2-2.562-3.922-3.839-5.922c-1.024-1.442-2.035-2.824-3.07-4.21
		c-0.286-0.43-0.614-0.867-0.879-1.298l-0.031,0.047c-0.035-0.043-0.066-0.09-0.102-0.137l-12.879,18.879
		c0.082,0.078,0.161,0.242,0.238,0.32c1.524,2.16,2.961,4.321,4.321,6.558c1.843,2.879,3.602,5.84,5.359,8.801
		c1.359,2.398,2.722,4.801,4,7.282c1.523,2.879,2.961,5.918,4.402,8.961c1.199,2.558,2.48,5.118,3.598,7.758
		c1.281,3.039,2.402,6.078,3.602,9.122c1.039,2.718,2.078,5.519,3.039,8.32c1.039,3.039,1.922,6.078,2.801,9.121
		c0.878,2.958,1.762,5.918,2.48,8.879c0.719,3.039,1.359,6.16,2,9.199c0.641,3.121,1.359,6.238,1.84,9.359
		c0.481,3.039,0.801,6.242,1.199,9.282c0.398,3.281,0.883,6.48,1.121,9.68c0.321,3.281,0.321,6.64,0.402,9.918
		c0.157,3.043,0.398,6.082,0.398,9.199c0,129.363-105.281,234.722-234.718,234.722c-3.043,0-6-0.238-8.961-0.32
		c-3.359-0.16-6.801-0.16-10.082-0.481c-3.277-0.238-6.398-0.718-9.598-1.121c-3.121-0.398-6.32-0.718-9.359-1.199
		c-3.203-0.481-6.242-1.199-9.282-1.84c-3.121-0.641-6.242-1.199-9.281-2c-2.961-0.718-5.922-1.598-8.879-2.48
		c-2.082-0.559-4.16-1.199-6.16-1.84c-0.961-0.321-1.922-0.558-2.882-0.879c-2.879-0.961-5.758-2.078-8.559-3.121
		c-2.957-1.122-5.84-2.238-8.718-3.442c-2.801-1.199-5.602-2.558-8.321-3.836c-2.801-1.281-5.519-2.641-8.238-4.082
		c-2.723-1.442-5.442-2.879-8.164-4.481c-2.559-1.438-5.039-2.961-7.516-4.558c-2.562-1.602-5.121-3.199-7.602-4.879l-13.942,9.551
		l-4.766,3.199c0.016,0.011,0.031,0.023,0.047,0.035l-0.141,0.094c4.722,3.441,9.598,6.718,14.558,9.84
		c3.039,1.918,6.082,3.758,9.203,5.519c2.238,1.281,4.477,2.481,6.797,3.68c0.082,0.082,0.082,0.082,0.164,0.16
		c4,2.078,8.078,4.16,12.238,6.078c1.762,0.801,3.52,1.524,5.278,2.321c0.402,0.16,0.882,0.402,1.281,0.562
		c2.473,1.066,5.004,1.91,7.489,2.886c0.91,0.36,1.832,0.711,2.738,1.055c2.406,0.906,4.766,1.953,7.214,2.777
		c0.719,0.321,1.442,0.562,2.16,0.801c5.758,1.918,11.602,3.598,17.52,5.199c0.878,0.161,1.762,0.398,2.718,0.641
		c5.84,1.438,11.68,2.719,17.68,3.68c0.961,0.16,2,0.32,2.961,0.48c6,0.961,12.082,1.762,18.238,2.321
		c0.882,0.078,1.762,0.078,2.641,0.16c2.714,0.214,5.461,0.203,8.179,0.32c0.734,0.035,1.485,0.062,2.227,0.09
		c2.636,0.09,5.254,0.308,7.914,0.308c0.398,0,0.801,0.078,1.203,0.078c141.117,0,256-114.879,256-256
		C512,255.602,511.918,255.121,511.918,254.722z"/>
	<path class="st0" d="M104.746,172.149l0.472-0.832c0.786-1.395,1.594-2.778,2.414-4.149l0.305-0.508l0.062-0.098l0.477-3.199
		l-0.973-1.301l-0.41-0.55l-0.554-0.742l-26.446-15.848l-2.734-1.64c-0.801-0.481-1.679-0.719-2.562-0.719
		c-0.546,0-1.046,0.242-1.562,0.43c-0.586,0.207-1.07,0.5-1.543,0.906c-0.398,0.336-0.84,0.621-1.133,1.062
		c-0.961,1.68-2,3.442-2.961,5.122c-0.058,0.113-0.058,0.23-0.114,0.343c-0.289,0.614-0.437,1.254-0.461,1.918
		c-0.023,0.496-0.031,0.996,0.094,1.5c0.196,0.621,0.493,1.183,0.867,1.672c0.012,0.015,0.012,0.034,0.024,0.046
		c0.042,0.054,0.109,0.082,0.156,0.133c0.363,0.43,0.774,0.821,1.274,1.106l29.442,16.641l2.558,0.641l1.828-1.066L104.746,172.149z
		"/>
	<path class="st0" d="M80.149,262.375c0.21-0.09,0.359-0.262,0.554-0.379c0.89-0.546,1.641-1.293,2.039-2.266l0,0
		c0.019-0.043,0.011-0.094,0.027-0.137c0.207-0.546,0.347-1.129,0.347-1.75c0-0.524,0-1.278,0-2.051
		c0.008-1.582,0.024-3.274,0.024-3.274l-1.004-2.542l-0.18-0.461l-1.363-0.594l-1.602-0.695l-34.625-0.55l-0.187-0.004l-0.422,0.172
		l-2.531,1.019l-0.004,0.008l-0.027,0.012l-1.278,2.961v7.277l1.172,2.715l0.118,0.27l2.961,1.203h0.738l11.234-0.176l10.266-0.16
		l11.832-0.172C78.918,262.782,79.562,262.633,80.149,262.375z"/>
	<path class="st0" d="M64.718,391.762c-6.082-8.48-11.602-17.359-16.48-26.641c-0.16-0.32-0.402-0.718-0.641-1.121
		c-2.558-4.879-4.879-9.918-7.121-15.039c-0.238-0.641-0.559-1.278-0.879-1.918c-2.082-5.043-4-10.082-5.762-15.199
		c-0.238-0.801-0.558-1.68-0.797-2.481c-1.68-5.121-3.203-10.242-4.562-15.519c-0.238-0.883-0.398-1.68-0.641-2.562
		c-1.278-5.36-2.398-10.719-3.359-16.078c-0.078-0.801-0.238-1.602-0.321-2.402c-0.878-5.598-1.598-11.199-2.078-16.957
		c-0.078-0.562-0.078-1.122-0.161-1.68c-0.402-5.922-0.722-11.922-0.722-18c0-0.082,0-0.164,0-0.164c0-8.078,0.402-16.078,1.203-24
		C34.477,113.844,134.637,21.203,256,21.203c0,0,0,0,0.078,0c6.078,0,12.16,0.32,18.16,0.718c0.558,0.078,1.121,0.078,1.679,0.161
		c5.68,0.48,11.278,1.199,16.801,2.082c0.879,0.078,1.758,0.238,2.641,0.398c5.278,0.879,10.558,2,15.758,3.199
		c1.039,0.321,2.078,0.558,3.039,0.801c5.122,1.282,10.082,2.719,15.039,4.398c1.043,0.321,2.082,0.641,3.125,1.039
		c4.958,1.683,9.758,3.523,14.559,5.523c0.878,0.398,1.839,0.797,2.718,1.199c4.879,2.161,9.68,4.398,14.402,6.879
		c0.558,0.32,1.195,0.641,1.836,0.961c4.961,2.641,9.844,5.438,14.562,8.398c0.078,0.082,0.16,0.16,0.32,0.242
		c3.84,2.48,7.68,4.961,11.36,7.68l14.538-9.902l3.918-2.618c-0.012-0.008-0.023-0.015-0.035-0.023l0.137-0.098
		c-1.84-1.52-3.68-2.879-5.598-4.242c-0.961-0.637-1.922-1.278-2.801-1.918c-2-1.442-4.082-2.879-6.082-4.161
		c-1.117-0.718-2.156-1.359-3.277-2.078c-1.922-1.203-3.84-2.481-5.84-3.68c-1.203-0.722-2.402-1.363-3.68-2.082
		c-1.843-1.122-3.762-2.161-5.679-3.199c-1.36-0.719-2.641-1.442-4-2.161c-1.844-0.878-3.68-1.839-5.524-2.801
		c-0.558-0.238-1.117-0.558-1.679-0.801c-0.879-0.48-1.84-0.801-2.719-1.277c-1.758-0.801-3.602-1.602-5.359-2.402
		c-1.602-0.719-3.203-1.359-4.801-2c-1.68-0.719-3.442-1.442-5.121-2.078c-1.758-0.722-3.438-1.363-5.118-1.922
		c-1.679-0.641-3.359-1.199-5.039-1.758c-1.762-0.64-3.602-1.281-5.441-1.839c-1.602-0.481-3.199-0.961-4.801-1.442
		c-1.199-0.402-2.398-0.801-3.602-1.121c-0.719-0.161-1.52-0.321-2.238-0.559c-1.52-0.402-3.043-0.801-4.558-1.121
		c-1.442-0.398-2.801-0.801-4.164-1.118c-0.719-0.164-1.36-0.242-2.078-0.402c-1.359-0.321-2.801-0.559-4.242-0.879
		c-2.238-0.481-4.477-0.883-6.637-1.282c-1.281-0.238-2.641-0.398-3.922-0.64c-2.398-0.398-4.801-0.798-7.199-1.118
		c-1.039-0.082-2.16-0.242-3.199-0.32c-2.641-0.321-5.282-0.641-8-0.883c-0.558-0.078-1.122-0.078-1.68-0.078
		C269.758,0.32,262.879,0,256,0c-26.484,0-52,4-76.082,11.523c-20,6.238-38.961,14.879-56.558,25.598
		c-21.121,12.801-40.242,28.641-56.801,46.801c-2.722,3.039-5.442,6.161-8.082,9.282c-13.039,15.84-24.238,33.199-33.199,51.918
		c-1.84,3.68-3.52,7.442-5.122,11.282C8.879,182.883,2.078,211.602,0.398,241.762c0,0.481-0.078,0.961-0.078,1.442
		C0.078,247.442,0,251.683,0,256c0,6.961,0.32,13.844,0.879,20.641c0,0.48,0,1.042,0.078,1.602c0.238,2.558,0.559,5.121,0.801,7.679
		c0.16,1.199,0.242,2.398,0.398,3.52c0.321,2.242,0.641,4.48,1.039,6.722c0.242,1.438,0.485,2.957,0.722,4.477
		c0.321,1.922,0.719,3.922,1.122,5.922c0.32,1.68,0.718,3.359,1.039,5.039c0.398,1.84,0.878,3.602,1.359,5.442
		c0.398,1.84,0.882,3.598,1.281,5.359c0.477,1.68,0.962,3.359,1.438,5.121c0.562,1.84,1.122,3.68,1.68,5.52
		c0.562,1.598,1.043,3.199,1.602,4.801c0.641,1.839,1.281,3.758,2,5.598c0.562,1.519,1.121,3.121,1.758,4.641
		c0.641,1.839,1.442,3.679,2.164,5.441c0.641,1.598,1.278,3.118,2,4.719c0.719,1.679,1.52,3.441,2.321,5.121
		c0.718,1.598,1.437,3.199,2.238,4.801c0.801,1.519,1.598,3.118,2.402,4.637c0.875,1.683,1.758,3.442,2.637,5.121
		c0.723,1.282,1.442,2.562,2.16,3.84c1.122,1.922,2.161,3.84,3.282,5.68c0.558,0.878,1.118,1.679,1.602,2.558
		c1.438,2.32,2.879,4.562,4.32,6.801c0.078,0.16,0.238,0.32,0.317,0.481c2.961,4.48,6.082,8.882,9.281,13.121l8-11.602
		L64.718,391.762z"/>
	<path class="st0" d="M142.398,437.844l-0.078,0.558l1.918,2.558l0.48,0.242l0.161,0.078c0.957,0.64,1.918,1.202,2.878,1.762
		c0.801,0.398,1.52,0.878,2.242,1.277l0.238,0.164l0.16,0.078l0.481,0.078l0.398,0.082l0.238,0.078l1.042,0.16l0.879-0.078
		l0.801-0.161l1.121-0.878l0.961-0.801l7.149-12.622l6.539-11.246l-0.27,0.187l0.179-0.32L142.398,437.844z"/>
	<path class="st0" d="M155.766,67.23c-0.75-0.442-1.61-0.687-2.504-0.687l-1.594,0.172l-0.218,0.121l-0.57,0.285
		c-1.238,0.734-2.446,1.434-3.661,2.141c-0.003,0.004-0.007,0.004-0.007,0.004c-0.5,0.293-1.012,0.574-1.508,0.871L145.09,70.5
		l-1.281,1.722l-0.641,0.863l0.074,0.528l0.133,0.934l0.222,1.773l13.09,21.898l4.719,7.918l0.027,0.023l0.004,0.004l2.078,1.598
		l1.511,0.18l0.496,0.066l0.586-0.16l1.25-0.325l0.477-0.242c1.281-0.879,2.722-1.598,4.082-2.398l0.559-0.321l0.035-0.019
		l0.957-1.199l1.09-1.344l-0.402-3.199l-16.558-29.758C157.156,68.282,156.516,67.664,155.766,67.23z"/>
	<path class="st0" d="M443.598,148.722c-0.641-1.039-1.199-2.082-1.84-3.121l-0.32-0.558L440,143.922l-1.203-0.878l-2,0.32
		l-19.359,28.32l25.442-14.16c1.121-0.64,1.918-1.762,2.316-3.039c0.082-0.32,0-0.562,0.082-0.882c0-0.32,0.082-0.718,0.082-1.039
		c-0.082-0.641-0.32-1.199-0.641-1.84C444.398,150.082,444,149.442,443.598,148.722z"/>
	<path class="st0" d="M259.359,39.922h-2.238l-1.191-0.007l-1.32,0.007h-1.973l-1.141,0.493l-1.847,0.781l-0.715,1.782l-0.492,1.234
		l0.187,16.722l0.035,3.094l0.133,14.215c0.082,2.718,2.242,4.878,5.359,4.878h2.762c0.954,0.004,1.825,0.004,1.825,0.004
		c2.175,0,3.976-1.465,4.617-3.438c0.102-0.304,0.168-0.617,0.207-0.945c0.023-0.172,0.106-0.321,0.114-0.5l0.183-12.844
		l0.313-20.461c0.004-0.488-0.137-0.93-0.262-1.375C263.359,41.523,261.582,39.984,259.359,39.922z"/>
	<path class="st0" d="M431.426,349.141l-18.042-10.188l-1.078-0.465l-0.418-0.179h-0.937c-1.778,0-3.422,0.961-4.294,2.504
		c-0.789,1.39-1.586,2.77-2.406,4.133c-0.352,0.582-0.563,1.206-0.653,1.839c-0.09,0.633-0.05,1.274,0.098,1.883
		c0.305,1.226,1.078,2.336,2.242,3.039l11.039,6.637l17.941,10.781l1.176,0.328l1.02,0.149l0.652-0.078l0.977-0.121l2.172-1.61
		l0.171-0.289l0.188-0.317c0.679-1.137,1.336-2.281,1.996-3.426c0.332-0.57,0.672-1.137,0.996-1.711l0.176-0.308l0.172-0.305
		l0.386-3.199l-0.926-1.191l-1.058-1.364L431.426,349.141z"/>
	<path class="st0" d="M472.023,259.649c0.02-1.13,0.008-2.153,0.012-3.231c0-0.808,0.015-1.695,0.008-2.422l-0.004-0.894
		l-0.004-0.594l-0.649-1.5l-0.648-1.5l-3.039-1.188l-34.035,0.867c-1.336,0.028-2.547,0.602-3.418,1.5
		c-0.539,0.559-0.883,1.266-1.114,2.02c-0.141,0.465-0.282,0.938-0.278,1.445c0.012,1.606-0.027,5.485-0.027,5.485l1.184,3.012
		l2.969,1.281l34.117,0.566C469.766,264.496,471.977,262.328,472.023,259.649z"/>
	<path class="st0" d="M366.957,70.562c-0.801-0.48-1.598-0.961-2.398-1.359c-0.878-0.562-1.84-1.121-2.801-1.68l-0.16-0.082
		l-0.481-0.238l-3.199-0.402l-2.558,2l-6.48,11.519l-10.481,18.801l-0.32,2.402v0.321l26.878-18.402l3.68-6.16
		c0.48-0.798,0.722-1.68,0.722-2.559c0-0.32-0.082-0.722-0.164-1.121c-0.238-0.961-0.797-1.68-1.438-2.32
		C367.516,71.043,367.278,70.722,366.957,70.562z"/>
	<path class="st0" d="M70.398,366.801l2.16,1.602l2,0.238l0.16-0.078l1.68-0.48l7.84-4.641l17.84-26L102,337.363l-0.722,0.078
		l-2.559,0.32L69.039,354.32c-0.641,0.321-1.122,0.801-1.523,1.282c-0.798,0.961-1.118,2.32-0.958,3.519
		c0,0.481,0.238,0.879,0.398,1.282c0.082,0.238,0.082,0.481,0.16,0.641c0.641,1.121,1.36,2.32,2,3.441
		c0.321,0.559,0.641,1.118,0.962,1.68v0.078L70.398,366.801z"/>
	<path class="st0" d="M350.793,406.535c-0.878-1.496-2.508-2.426-4.246-2.426c-0.688,0-1.336,0.258-1.969,0.539
		c-0.176,0.074-0.375,0.046-0.539,0.144c-0.305,0.18-0.618,0.352-0.922,0.527c-1.062,0.626-2.125,1.246-3.199,1.844l-0.308,0.172
		l-0.313,0.168l-2,2.539l0.125,1.117l0.242,2.086l11.062,19.894l5.828,10.476l1.062,0.844l1.066,0.844l0.883,0.129l0.442,0.062
		l0.461-0.023l0.922-0.051l1.129-0.293l0.391-0.222c1.73-0.957,3.449-1.946,5.14-2.957c0.551-0.321,1.012-0.746,1.387-1.234
		c0.015-0.02,0.039-0.028,0.05-0.047c0.383-0.512,0.668-1.098,0.829-1.738c0.164-0.637,0.199-1.285,0.105-1.918
		c-0.046-0.332-0.218-0.633-0.336-0.95c-0.102-0.289-0.144-0.594-0.304-0.863L350.793,406.535z"/>
	<path class="st0" d="M257.801,428.851c-0.004,0-5.066,0-5.066,0c-1.297,0.118-2.442,0.692-3.27,1.555
		c-0.828,0.867-1.336,2.015-1.359,3.281l-0.52,33.34c-0.007,0.582,0.13,1.129,0.313,1.653c0.523,1.511,1.754,2.633,3.313,3.074
		c0.402,0.114,0.789,0.262,1.226,0.27l3.484,0.027l3.266-0.019l1.493-0.645l1.492-0.644l1.058-2.664l0.137-0.348l-0.586-34.043
		c-0.024-1.359-0.566-2.566-1.454-3.437C260.438,429.383,259.203,428.851,257.801,428.851z"/>
	<path class="st0" d="M305.566,306.863L455.55,87.664c5.5-7.977,4.59-18.414-2.206-25.379l-0.11-0.109
		c-6.809-6.809-17.519-7.793-25.438-2.344l-218.043,149.16L58.586,429.07c-5.457,8.094-4.472,18.531,2.371,25.359
		c3.77,3.782,8.797,5.863,14.16,5.863c4.11,0,8.043-1.23,11.309-3.511l217.891-149.066L305.566,306.863z M85.379,429.942l5.16-7.543
		L224.84,226.117l54.449,54.45l9.985,10.027L93.016,424.875l-4.07,2.789L85.379,429.942z"/>
</g>
</svg>
